<?xml version="1.0" encoding="UTF-8" standalone="no"?>
<!DOCTYPE svg PUBLIC "-//W3C//DTD SVG 1.1//EN"
 "http://www.w3.org/Graphics/SVG/1.1/DTD/svg11.dtd">
<!-- Generated by graphviz version 2.40.1 (20161225.0304)
 -->
<!-- Title: dependencies Pages: 1 -->
<svg width="1908pt" height="363pt"
 viewBox="0.00 0.00 1908.00 363.00" xmlns="http://www.w3.org/2000/svg" xmlns:xlink="http://www.w3.org/1999/xlink">
<g id="graph0" class="graph" transform="scale(1 1) rotate(0) translate(4 359)">
<title>dependencies</title>
<polygon fill="#ffffff" stroke="transparent" points="-4,4 -4,-359 1904,-359 1904,4 -4,4"/>
<text text-anchor="start" x="929.0091" y="-42.4" font-family="sans-serif" font-weight="bold" font-size="14.00" fill="#000000">Legend</text>
<polygon fill="#ffffb3" stroke="transparent" points="716,-10 716,-30 736,-30 736,-10 716,-10"/>
<text text-anchor="start" x="739.629" y="-15.4" font-family="sans-serif" font-size="14.00" fill="#000000"> &#160;Declarations</text>
<polygon fill="#8dd3c7" stroke="transparent" points="829,-10 829,-30 849,-30 849,-10 829,-10"/>
<text text-anchor="start" x="852.7251" y="-15.4" font-family="sans-serif" font-size="14.00" fill="#000000"> &#160;Module</text>
<polygon fill="#80b1d3" stroke="transparent" points="915,-10 915,-30 935,-30 935,-10 915,-10"/>
<text text-anchor="start" x="938.7812" y="-15.4" font-family="sans-serif" font-size="14.00" fill="#000000"> &#160;Bootstrap</text>
<polygon fill="#fdb462" stroke="transparent" points="1012,-10 1012,-30 1032,-30 1032,-10 1012,-10"/>
<text text-anchor="start" x="1035.6732" y="-15.4" font-family="sans-serif" font-size="14.00" fill="#000000"> &#160;Providers</text>
<polygon fill="#fb8072" stroke="transparent" points="1108,-10 1108,-30 1128,-30 1128,-10 1108,-10"/>
<text text-anchor="start" x="1131.7258" y="-15.4" font-family="sans-serif" font-size="14.00" fill="#000000"> &#160;Exports</text>
<g id="clust1" class="cluster">
<title>cluster_AppModule</title>
<polygon fill="none" stroke="#000000" stroke-dasharray="1,5" points="560,-146 560,-347 1222,-347 1222,-146 560,-146"/>
</g>
<g id="clust3" class="cluster">
<title>cluster_AppModule_imports</title>
<polygon fill="none" stroke="#000000" points="568,-154 568,-282 1214,-282 1214,-154 568,-154"/>
</g>
<g id="clust7" class="cluster">
<title>cluster_AuthModule</title>
<polygon fill="none" stroke="#000000" stroke-dasharray="1,5" points="8,-146 8,-214 552,-214 552,-146 8,-146"/>
</g>
<g id="clust10" class="cluster">
<title>cluster_AuthModule_exports</title>
<polygon fill="none" stroke="#000000" points="438,-154 438,-206 544,-206 544,-154 438,-154"/>
</g>
<g id="clust12" class="cluster">
<title>cluster_AuthModule_providers</title>
<polygon fill="none" stroke="#000000" points="16,-154 16,-206 430,-206 430,-154 16,-154"/>
</g>
<g id="clust13" class="cluster">
<title>cluster_CitiesModule</title>
<polygon fill="none" stroke="#000000" stroke-dasharray="1,5" points="483,-70 483,-138 641,-138 641,-70 483,-70"/>
</g>
<g id="clust18" class="cluster">
<title>cluster_CitiesModule_providers</title>
<polygon fill="none" stroke="#000000" points="491,-78 491,-130 633,-130 633,-78 491,-78"/>
</g>
<g id="clust19" class="cluster">
<title>cluster_CountriesModule</title>
<polygon fill="none" stroke="#000000" stroke-dasharray="1,5" points="649,-70 649,-138 837,-138 837,-70 649,-70"/>
</g>
<g id="clust24" class="cluster">
<title>cluster_CountriesModule_providers</title>
<polygon fill="none" stroke="#000000" points="657,-78 657,-130 829,-130 829,-78 657,-78"/>
</g>
<g id="clust25" class="cluster">
<title>cluster_ElasticSearchModule</title>
<polygon fill="none" stroke="#000000" stroke-dasharray="1,5" points="1230,-222 1230,-290 1610,-290 1610,-222 1230,-222"/>
</g>
<g id="clust28" class="cluster">
<title>cluster_ElasticSearchModule_exports</title>
<polygon fill="none" stroke="#000000" points="1448,-230 1448,-282 1602,-282 1602,-230 1448,-230"/>
</g>
<g id="clust30" class="cluster">
<title>cluster_ElasticSearchModule_providers</title>
<polygon fill="none" stroke="#000000" points="1238,-230 1238,-282 1440,-282 1440,-230 1238,-230"/>
</g>
<g id="clust31" class="cluster">
<title>cluster_RestaurantsModule</title>
<polygon fill="none" stroke="#000000" stroke-dasharray="1,5" points="845,-70 845,-138 1047,-138 1047,-70 845,-70"/>
</g>
<g id="clust36" class="cluster">
<title>cluster_RestaurantsModule_providers</title>
<polygon fill="none" stroke="#000000" points="853,-78 853,-130 1039,-130 1039,-78 853,-78"/>
</g>
<g id="clust37" class="cluster">
<title>cluster_UsersModule</title>
<polygon fill="none" stroke="#000000" stroke-dasharray="1,5" points="1618,-222 1618,-290 1892,-290 1892,-222 1618,-222"/>
</g>
<g id="clust40" class="cluster">
<title>cluster_UsersModule_exports</title>
<polygon fill="none" stroke="#000000" points="1774,-230 1774,-282 1884,-282 1884,-230 1774,-230"/>
</g>
<g id="clust42" class="cluster">
<title>cluster_UsersModule_providers</title>
<polygon fill="none" stroke="#000000" points="1626,-230 1626,-282 1766,-282 1766,-230 1626,-230"/>
</g>
<!-- AuthModule -->
<g id="node1" class="node">
<title>AuthModule</title>
<polygon fill="#8dd3c7" stroke="#000000" points="663.5482,-274 660.5482,-278 639.5482,-278 636.5482,-274 576.4518,-274 576.4518,-238 663.5482,-238 663.5482,-274"/>
<text text-anchor="middle" x="620" y="-251.8" font-family="Times,serif" font-size="14.00" fill="#000000">AuthModule</text>
</g>
<!-- AppModule -->
<g id="node7" class="node">
<title>AppModule</title>
<polygon fill="#8dd3c7" stroke="#000000" points="852.6571,-339 849.6571,-343 828.6571,-343 825.6571,-339 769.3429,-339 769.3429,-303 852.6571,-303 852.6571,-339"/>
<text text-anchor="middle" x="811" y="-316.8" font-family="Times,serif" font-size="14.00" fill="#000000">AppModule</text>
</g>
<!-- AuthModule&#45;&gt;AppModule -->
<g id="edge1" class="edge">
<title>AuthModule&#45;&gt;AppModule</title>
<path fill="none" stroke="#000000" d="M663.5693,-265C710.7782,-265 779.4458,-265 779.4458,-265 779.4458,-265 779.4458,-292.973 779.4458,-292.973"/>
<polygon fill="#000000" stroke="#000000" points="775.9459,-292.973 779.4458,-302.973 782.9459,-292.973 775.9459,-292.973"/>
</g>
<!-- AuthService  -->
<g id="node8" class="node">
<title>AuthService </title>
<polygon fill="#fb8072" stroke="#000000" points="535.9761,-198 446.0239,-198 446.0239,-162 535.9761,-162 535.9761,-198"/>
<text text-anchor="middle" x="491" y="-175.8" font-family="Times,serif" font-size="14.00" fill="#000000">AuthService </text>
</g>
<!-- AuthModule&#45;&gt;AuthService  -->
<g id="edge8" class="edge">
<title>AuthModule&#45;&gt;AuthService </title>
<path fill="none" stroke="#000000" stroke-dasharray="5,2" d="M576.3265,-246C538.9026,-246 491,-246 491,-246 491,-246 491,-208.0348 491,-208.0348"/>
<polygon fill="#000000" stroke="#000000" points="494.5001,-208.0348 491,-198.0348 487.5001,-208.0348 494.5001,-208.0348"/>
</g>
<!-- CitiesModule -->
<g id="node2" class="node">
<title>CitiesModule</title>
<polygon fill="#8dd3c7" stroke="#000000" points="668.2177,-198 665.2177,-202 644.2177,-202 641.2177,-198 575.7823,-198 575.7823,-162 668.2177,-162 668.2177,-198"/>
<text text-anchor="middle" x="622" y="-175.8" font-family="Times,serif" font-size="14.00" fill="#000000">CitiesModule</text>
</g>
<!-- CitiesModule&#45;&gt;AppModule -->
<g id="edge2" class="edge">
<title>CitiesModule&#45;&gt;AppModule</title>
<path fill="none" stroke="#000000" d="M668.4548,-180C673.6164,-180 677.0575,-180 677.0575,-180 677.0575,-180 677.0575,-321 677.0575,-321 677.0575,-321 758.9873,-321 758.9873,-321"/>
<polygon fill="#000000" stroke="#000000" points="758.9873,-324.5001 768.9873,-321 758.9872,-317.5001 758.9873,-324.5001"/>
</g>
<!-- CountriesModule -->
<g id="node3" class="node">
<title>CountriesModule</title>
<polygon fill="#8dd3c7" stroke="#000000" points="799.9874,-198 796.9874,-202 775.9874,-202 772.9874,-198 686.0126,-198 686.0126,-162 799.9874,-162 799.9874,-198"/>
<text text-anchor="middle" x="743" y="-175.8" font-family="Times,serif" font-size="14.00" fill="#000000">CountriesModule</text>
</g>
<!-- CountriesModule&#45;&gt;AppModule -->
<g id="edge3" class="edge">
<title>CountriesModule&#45;&gt;AppModule</title>
<path fill="none" stroke="#000000" d="M789.7197,-198.1446C789.7197,-198.1446 789.7197,-292.925 789.7197,-292.925"/>
<polygon fill="#000000" stroke="#000000" points="786.2198,-292.925 789.7197,-302.925 793.2198,-292.925 786.2198,-292.925"/>
</g>
<!-- ElasticSearchModule -->
<g id="node4" class="node">
<title>ElasticSearchModule</title>
<polygon fill="#8dd3c7" stroke="#000000" points="1095.7353,-198 1092.7353,-202 1071.7353,-202 1068.7353,-198 960.2647,-198 960.2647,-162 1095.7353,-162 1095.7353,-198"/>
<text text-anchor="middle" x="1028" y="-175.8" font-family="Times,serif" font-size="14.00" fill="#000000">ElasticSearchModule</text>
</g>
<!-- ElasticSearchModule&#45;&gt;AppModule -->
<g id="edge4" class="edge">
<title>ElasticSearchModule&#45;&gt;AppModule</title>
<path fill="none" stroke="#000000" d="M1028,-198.2067C1028,-235.0559 1028,-315 1028,-315 1028,-315 862.8398,-315 862.8398,-315"/>
<polygon fill="#000000" stroke="#000000" points="862.8398,-311.5001 852.8398,-315 862.8397,-318.5001 862.8398,-311.5001"/>
</g>
<!-- ElasticSearchService  -->
<g id="node14" class="node">
<title>ElasticSearchService </title>
<polygon fill="#fb8072" stroke="#000000" points="1593.6632,-274 1456.3368,-274 1456.3368,-238 1593.6632,-238 1593.6632,-274"/>
<text text-anchor="middle" x="1525" y="-251.8" font-family="Times,serif" font-size="14.00" fill="#000000">ElasticSearchService </text>
</g>
<!-- ElasticSearchModule&#45;&gt;ElasticSearchService  -->
<g id="edge14" class="edge">
<title>ElasticSearchModule&#45;&gt;ElasticSearchService </title>
<path fill="none" stroke="#000000" stroke-dasharray="5,2" d="M994.0663,-198.1097C994.0663,-207.897 994.0663,-218 994.0663,-218 994.0663,-218 1525,-218 1525,-218 1525,-218 1525,-227.8903 1525,-227.8903"/>
<polygon fill="#000000" stroke="#000000" points="1521.5001,-227.8903 1525,-237.8903 1528.5001,-227.8904 1521.5001,-227.8903"/>
</g>
<!-- RestaurantsModule -->
<g id="node5" class="node">
<title>RestaurantsModule</title>
<polygon fill="#8dd3c7" stroke="#000000" points="942.3613,-198 939.3613,-202 918.3613,-202 915.3613,-198 817.6387,-198 817.6387,-162 942.3613,-162 942.3613,-198"/>
<text text-anchor="middle" x="880" y="-175.8" font-family="Times,serif" font-size="14.00" fill="#000000">RestaurantsModule</text>
</g>
<!-- RestaurantsModule&#45;&gt;AppModule -->
<g id="edge5" class="edge">
<title>RestaurantsModule&#45;&gt;AppModule</title>
<path fill="none" stroke="#000000" d="M835.1988,-198.1446C835.1988,-198.1446 835.1988,-292.925 835.1988,-292.925"/>
<polygon fill="#000000" stroke="#000000" points="831.6989,-292.925 835.1988,-302.925 838.6989,-292.925 831.6989,-292.925"/>
</g>
<!-- UsersModule -->
<g id="node6" class="node">
<title>UsersModule</title>
<polygon fill="#8dd3c7" stroke="#000000" points="1205.9218,-198 1202.9218,-202 1181.9218,-202 1178.9218,-198 1114.0782,-198 1114.0782,-162 1205.9218,-162 1205.9218,-198"/>
<text text-anchor="middle" x="1160" y="-175.8" font-family="Times,serif" font-size="14.00" fill="#000000">UsersModule</text>
</g>
<!-- UsersModule&#45;&gt;AuthModule -->
<g id="edge7" class="edge">
<title>UsersModule&#45;&gt;AuthModule</title>
<path fill="none" stroke="#000000" d="M1144.7632,-198.308C1144.7632,-218.1455 1144.7632,-247 1144.7632,-247 1144.7632,-247 673.8384,-247 673.8384,-247"/>
<polygon fill="#000000" stroke="#000000" points="673.8385,-243.5001 663.8384,-247 673.8384,-250.5001 673.8385,-243.5001"/>
</g>
<!-- UsersModule&#45;&gt;AppModule -->
<g id="edge6" class="edge">
<title>UsersModule&#45;&gt;AppModule</title>
<path fill="none" stroke="#000000" d="M1175.2368,-198.0251C1175.2368,-237.2783 1175.2368,-327 1175.2368,-327 1175.2368,-327 862.7826,-327 862.7826,-327"/>
<polygon fill="#000000" stroke="#000000" points="862.7826,-323.5001 852.7826,-327 862.7826,-330.5001 862.7826,-323.5001"/>
</g>
<!-- UsersService  -->
<g id="node17" class="node">
<title>UsersService </title>
<polygon fill="#fb8072" stroke="#000000" points="1875.8493,-274 1782.1507,-274 1782.1507,-238 1875.8493,-238 1875.8493,-274"/>
<text text-anchor="middle" x="1829" y="-251.8" font-family="Times,serif" font-size="14.00" fill="#000000">UsersService </text>
</g>
<!-- UsersModule&#45;&gt;UsersService  -->
<g id="edge17" class="edge">
<title>UsersModule&#45;&gt;UsersService </title>
<path fill="none" stroke="#000000" stroke-dasharray="5,2" d="M1205.7198,-174C1356.5803,-174 1829,-174 1829,-174 1829,-174 1829,-227.8015 1829,-227.8015"/>
<polygon fill="#000000" stroke="#000000" points="1825.5001,-227.8015 1829,-237.8015 1832.5001,-227.8016 1825.5001,-227.8015"/>
</g>
<!-- AuthService -->
<g id="node9" class="node">
<title>AuthService</title>
<ellipse fill="#fdb462" stroke="#000000" cx="363" cy="-180" rx="59.1083" ry="18"/>
<text text-anchor="middle" x="363" y="-175.8" font-family="Times,serif" font-size="14.00" fill="#000000">AuthService</text>
</g>
<!-- AuthService&#45;&gt;AuthModule -->
<g id="edge9" class="edge">
<title>AuthService&#45;&gt;AuthModule</title>
<path fill="none" stroke="#000000" d="M363,-198.0449C363,-219.6623 363,-253 363,-253 363,-253 566.4035,-253 566.4035,-253"/>
<polygon fill="#000000" stroke="#000000" points="566.4035,-256.5001 576.4035,-253 566.4034,-249.5001 566.4035,-256.5001"/>
</g>
<!-- JwtStrategy -->
<g id="node10" class="node">
<title>JwtStrategy</title>
<ellipse fill="#fdb462" stroke="#000000" cx="229" cy="-180" rx="56.7561" ry="18"/>
<text text-anchor="middle" x="229" y="-175.8" font-family="Times,serif" font-size="14.00" fill="#000000">JwtStrategy</text>
</g>
<!-- JwtStrategy&#45;&gt;AuthModule -->
<g id="edge10" class="edge">
<title>JwtStrategy&#45;&gt;AuthModule</title>
<path fill="none" stroke="#000000" d="M229,-198.1532C229,-221.7566 229,-260 229,-260 229,-260 566.2855,-260 566.2855,-260"/>
<polygon fill="#000000" stroke="#000000" points="566.2855,-263.5001 576.2855,-260 566.2854,-256.5001 566.2855,-263.5001"/>
</g>
<!-- LocalStrategy -->
<g id="node11" class="node">
<title>LocalStrategy</title>
<ellipse fill="#fdb462" stroke="#000000" cx="89" cy="-180" rx="65.4053" ry="18"/>
<text text-anchor="middle" x="89" y="-175.8" font-family="Times,serif" font-size="14.00" fill="#000000">LocalStrategy</text>
</g>
<!-- LocalStrategy&#45;&gt;AuthModule -->
<g id="edge11" class="edge">
<title>LocalStrategy&#45;&gt;AuthModule</title>
<path fill="none" stroke="#000000" d="M89,-198.0265C89,-223.5093 89,-267 89,-267 89,-267 566.0943,-267 566.0943,-267"/>
<polygon fill="#000000" stroke="#000000" points="566.0943,-270.5001 576.0943,-267 566.0942,-263.5001 566.0943,-270.5001"/>
</g>
<!-- CitiesService -->
<g id="node12" class="node">
<title>CitiesService</title>
<ellipse fill="#fdb462" stroke="#000000" cx="562" cy="-104" rx="62.5508" ry="18"/>
<text text-anchor="middle" x="562" y="-99.8" font-family="Times,serif" font-size="14.00" fill="#000000">CitiesService</text>
</g>
<!-- CitiesService&#45;&gt;CitiesModule -->
<g id="edge12" class="edge">
<title>CitiesService&#45;&gt;CitiesModule</title>
<path fill="none" stroke="#000000" d="M600.2084,-118.295C600.2084,-118.295 600.2084,-151.7342 600.2084,-151.7342"/>
<polygon fill="#000000" stroke="#000000" points="596.7085,-151.7341 600.2084,-161.7342 603.7085,-151.7342 596.7085,-151.7341"/>
</g>
<!-- CountriesService -->
<g id="node13" class="node">
<title>CountriesService</title>
<ellipse fill="#fdb462" stroke="#000000" cx="743" cy="-104" rx="77.5839" ry="18"/>
<text text-anchor="middle" x="743" y="-99.8" font-family="Times,serif" font-size="14.00" fill="#000000">CountriesService</text>
</g>
<!-- CountriesService&#45;&gt;CountriesModule -->
<g id="edge13" class="edge">
<title>CountriesService&#45;&gt;CountriesModule</title>
<path fill="none" stroke="#000000" d="M743,-122.0109C743,-122.0109 743,-151.855 743,-151.855"/>
<polygon fill="#000000" stroke="#000000" points="739.5001,-151.8549 743,-161.855 746.5001,-151.855 739.5001,-151.8549"/>
</g>
<!-- ElasticSearchService -->
<g id="node15" class="node">
<title>ElasticSearchService</title>
<ellipse fill="#fdb462" stroke="#000000" cx="1339" cy="-256" rx="92.5861" ry="18"/>
<text text-anchor="middle" x="1339" y="-251.8" font-family="Times,serif" font-size="14.00" fill="#000000">ElasticSearchService</text>
</g>
<!-- ElasticSearchService&#45;&gt;ElasticSearchModule -->
<g id="edge15" class="edge">
<title>ElasticSearchService&#45;&gt;ElasticSearchModule</title>
<path fill="none" stroke="#000000" d="M1246.3557,-256C1165.8106,-256 1061.9338,-256 1061.9338,-256 1061.9338,-256 1061.9338,-208.0109 1061.9338,-208.0109"/>
<polygon fill="#000000" stroke="#000000" points="1065.4338,-208.0109 1061.9338,-198.0109 1058.4338,-208.011 1065.4338,-208.0109"/>
</g>
<!-- RestaurantsService -->
<g id="node16" class="node">
<title>RestaurantsService</title>
<ellipse fill="#fdb462" stroke="#000000" cx="946" cy="-104" rx="85.085" ry="18"/>
<text text-anchor="middle" x="946" y="-99.8" font-family="Times,serif" font-size="14.00" fill="#000000">RestaurantsService</text>
</g>
<!-- RestaurantsService&#45;&gt;RestaurantsModule -->
<g id="edge16" class="edge">
<title>RestaurantsService&#45;&gt;RestaurantsModule</title>
<path fill="none" stroke="#000000" d="M901.694,-119.3797C901.694,-119.3797 901.694,-151.971 901.694,-151.971"/>
<polygon fill="#000000" stroke="#000000" points="898.1941,-151.971 901.694,-161.971 905.1941,-151.971 898.1941,-151.971"/>
</g>
<!-- UsersService -->
<g id="node18" class="node">
<title>UsersService</title>
<ellipse fill="#fdb462" stroke="#000000" cx="1696" cy="-256" rx="61.9519" ry="18"/>
<text text-anchor="middle" x="1696" y="-251.8" font-family="Times,serif" font-size="14.00" fill="#000000">UsersService</text>
</g>
<!-- UsersService&#45;&gt;UsersModule -->
<g id="edge18" class="edge">
<title>UsersService&#45;&gt;UsersModule</title>
<path fill="none" stroke="#000000" d="M1696,-237.9733C1696,-217.2328 1696,-186 1696,-186 1696,-186 1216.163,-186 1216.163,-186"/>
<polygon fill="#000000" stroke="#000000" points="1216.163,-182.5001 1206.163,-186 1216.1629,-189.5001 1216.163,-182.5001"/>
</g>
</g>
</svg>
